<svg width="40" height="41" viewBox="0 0 40 41" fill="none" xmlns="http://www.w3.org/2000/svg">
<g clip-path="url(#clip0_571_947)">
<path d="M40 30.3493C40 30.5685 39.9932 31.0411 39.9795 31.411C39.9452 32.3082 39.8767 33.4658 39.7671 33.9931C39.6027 34.7877 39.363 35.5342 39.0411 36.1575C38.6644 36.8973 38.1849 37.5548 37.6096 38.1233C37.0411 38.6918 36.3836 39.1712 35.6438 39.5479C35.0205 39.8699 34.2671 40.1096 33.4658 40.274C32.9452 40.3767 31.7945 40.4521 30.9041 40.4795C30.5342 40.4932 30.0616 40.5 29.8425 40.5H10.1438C9.92466 40.5 9.45205 40.4932 9.08219 40.4795C8.18493 40.4452 7.0274 40.3767 6.5 40.2671C5.70548 40.1027 4.9589 39.863 4.33562 39.5411C3.59589 39.1644 2.93836 38.6849 2.36986 38.1096C1.80137 37.5411 1.32192 36.8836 0.945206 36.1438C0.623288 35.5205 0.383562 34.7671 0.219178 33.9658C0.116438 33.4452 0.0410959 32.2945 0.0136986 31.4041C0.00684932 31.0411 0 30.5685 0 30.3493V10.6507C0 10.4315 0.00684932 9.9589 0.0205479 9.58904C0.0547945 8.69178 0.123288 7.53425 0.232877 7.00685C0.39726 6.21233 0.636986 5.46575 0.958904 4.84247C1.33562 4.10274 1.81507 3.44521 2.38356 2.87671C2.95205 2.30822 3.60959 1.82877 4.34932 1.45205C4.9726 1.13014 5.72603 0.890411 6.5274 0.726027C7.04795 0.623288 8.19863 0.547945 9.08904 0.520548C9.4589 0.506849 9.93151 0.5 10.1507 0.5H29.8493C30.0685 0.5 30.5411 0.506849 30.911 0.520548C31.8082 0.554795 32.9658 0.623288 33.4931 0.732877C34.2877 0.89726 35.0342 1.13699 35.6575 1.4589C36.3973 1.83562 37.0548 2.31507 37.6233 2.89041C38.1918 3.4589 38.6712 4.11644 39.0479 4.85616C39.3699 5.47945 39.6096 6.23288 39.774 7.03425C39.8767 7.55479 39.9521 8.70548 39.9795 9.59589C39.9932 9.96575 40 10.4384 40 10.6575V30.3493Z" fill="url(#paint0_linear_571_947)"/>
<path fill-rule="evenodd" clip-rule="evenodd" d="M30.5204 10.0755C27.8287 7.38376 24.2465 5.89746 20.4314 5.89746C12.5684 5.89746 6.17797 12.2947 6.17113 20.1509C6.17113 22.6646 6.82866 25.1166 8.07524 27.2742L6.05469 34.6646L13.6163 32.6851C15.6985 33.8221 18.041 34.418 20.4314 34.418H20.4382C28.2944 34.418 34.6917 28.0207 34.6985 20.1646C34.6985 16.3495 33.2122 12.7673 30.5204 10.0755ZM20.4382 32.007C18.3081 32.007 16.2191 31.4317 14.404 30.3564L13.9725 30.1029L9.48619 31.281L10.6848 26.9112L10.404 26.466C9.21907 24.5824 8.58893 22.3975 8.58893 20.1577C8.58893 13.6235 13.9109 8.30842 20.4451 8.30842C23.6095 8.30842 26.5889 9.5413 28.8218 11.781C31.0615 14.0207 32.2944 17.0002 32.2876 20.1646C32.2807 26.692 26.9656 32.007 20.4382 32.007ZM26.9382 23.1372C26.5821 22.9591 24.8287 22.0961 24.5067 21.9797C24.178 21.8632 23.9451 21.8016 23.7054 22.1577C23.4656 22.5139 22.7876 23.3153 22.5752 23.555C22.3698 23.7947 22.1574 23.8221 21.8013 23.644C21.4451 23.466 20.2944 23.0892 18.9382 21.8769C17.8766 20.9317 17.1643 19.7673 16.9588 19.4112C16.7533 19.055 16.9382 18.8632 17.1163 18.6851C17.2739 18.5276 17.4725 18.2673 17.6506 18.0618C17.8287 17.8564 17.8903 17.7057 18.0067 17.466C18.1232 17.2262 18.0684 17.0207 17.9793 16.8427C17.8903 16.6646 17.178 14.9112 16.8835 14.1988C16.5958 13.507 16.3013 13.5961 16.0821 13.5892C15.8766 13.5755 15.6369 13.5755 15.3972 13.5755C15.1574 13.5755 14.7739 13.6646 14.4451 14.0207C14.1163 14.3769 13.1985 15.2399 13.1985 16.9934C13.1985 18.7468 14.4725 20.4386 14.6506 20.6783C14.8287 20.918 17.1643 24.5139 20.7396 26.055C21.5889 26.4249 22.2533 26.644 22.7739 26.8084C23.63 27.0824 24.404 27.0413 25.0204 26.9523C25.7054 26.8495 27.13 26.0892 27.4246 25.2605C27.7191 24.4317 27.7191 23.7125 27.63 23.5687C27.5273 23.4043 27.2944 23.3153 26.9382 23.1372Z" fill="white"/>
</g>
<defs>
<linearGradient id="paint0_linear_571_947" x1="20.0015" y1="40.5031" x2="20.0015" y2="0.5" gradientUnits="userSpaceOnUse">
<stop stop-color="#25CF43"/>
<stop offset="1" stop-color="#61FD7D"/>
</linearGradient>
<clipPath id="clip0_571_947">
<rect width="40" height="40" fill="white" transform="translate(0 0.5)"/>
</clipPath>
</defs>
</svg>
